<?xml version="1.0" encoding="UTF-8"?> <svg xmlns="http://www.w3.org/2000/svg" width="588" height="480" viewBox="0 0 588 480" fill="none"><g clip-path="url(#clip0_2072_99471)"><g filter="url(#filter0_d_2072_99471)"><path d="M166 150.501C166 142.492 172.492 136 180.501 136H588V520.267C588 528.276 581.508 534.769 573.499 534.769H166V150.501Z" fill="#0A1628" fill-opacity="0.5" shape-rendering="crispEdges"></path><g opacity="0.5"><path opacity="0.7" d="M273.251 317.014C273.019 317.014 272.82 316.971 272.653 316.884C272.486 316.793 272.348 316.665 272.24 316.498C272.131 316.331 272.051 316.126 272 315.883C271.95 315.64 271.924 315.363 271.924 315.051C271.924 314.743 271.95 314.468 272 314.225C272.051 313.978 272.131 313.772 272.24 313.605C272.348 313.438 272.486 313.311 272.653 313.224C272.82 313.134 273.019 313.088 273.251 313.088C273.483 313.088 273.682 313.134 273.849 313.224C274.016 313.311 274.154 313.438 274.263 313.605C274.371 313.772 274.451 313.978 274.502 314.225C274.553 314.468 274.578 314.743 274.578 315.051C274.578 315.363 274.553 315.64 274.502 315.883C274.451 316.126 274.371 316.331 274.263 316.498C274.154 316.665 274.016 316.793 273.849 316.884C273.682 316.971 273.483 317.014 273.251 317.014ZM273.251 316.617C273.403 316.617 273.534 316.588 273.643 316.53C273.751 316.469 273.838 316.384 273.904 316.275C273.973 316.166 274.023 316.036 274.056 315.883C274.089 315.727 274.105 315.553 274.105 315.361V314.741C274.105 314.553 274.089 314.381 274.056 314.225C274.023 314.069 273.973 313.937 273.904 313.828C273.838 313.719 273.751 313.636 273.643 313.578C273.534 313.516 273.403 313.485 273.251 313.485C273.099 313.485 272.968 313.516 272.86 313.578C272.751 313.636 272.662 313.719 272.593 313.828C272.528 313.937 272.479 314.069 272.446 314.225C272.414 314.381 272.397 314.553 272.397 314.741V315.361C272.397 315.553 272.414 315.727 272.446 315.883C272.479 316.036 272.528 316.166 272.593 316.275C272.662 316.384 272.751 316.469 272.86 316.53C272.968 316.588 273.099 316.617 273.251 316.617ZM273.251 315.372C273.124 315.372 273.035 315.347 272.985 315.296C272.937 315.245 272.914 315.184 272.914 315.111V314.992C272.914 314.919 272.937 314.857 272.985 314.807C273.035 314.756 273.124 314.731 273.251 314.731C273.378 314.731 273.465 314.756 273.512 314.807C273.563 314.857 273.588 314.919 273.588 314.992V315.111C273.588 315.184 273.563 315.245 273.512 315.296C273.465 315.347 273.378 315.372 273.251 315.372Z" fill="#EAFFFF"></path><path opacity="0.7" d="M286.799 316.949V316.552H287.887V313.491H287.849L286.892 314.382L286.625 314.094L287.631 313.153H288.344V316.552H289.344V316.949H286.799ZM291.284 317.014C291.052 317.014 290.852 316.971 290.685 316.884C290.519 316.793 290.381 316.665 290.272 316.498C290.163 316.331 290.084 316.126 290.033 315.883C289.982 315.64 289.957 315.363 289.957 315.051C289.957 314.743 289.982 314.468 290.033 314.225C290.084 313.978 290.163 313.772 290.272 313.605C290.381 313.438 290.519 313.311 290.685 313.224C290.852 313.134 291.052 313.088 291.284 313.088C291.516 313.088 291.715 313.134 291.882 313.224C292.049 313.311 292.186 313.438 292.295 313.605C292.404 313.772 292.484 313.978 292.534 314.225C292.585 314.468 292.61 314.743 292.61 315.051C292.61 315.363 292.585 315.64 292.534 315.883C292.484 316.126 292.404 316.331 292.295 316.498C292.186 316.665 292.049 316.793 291.882 316.884C291.715 316.971 291.516 317.014 291.284 317.014ZM291.284 316.617C291.436 316.617 291.566 316.588 291.675 316.53C291.784 316.469 291.871 316.384 291.936 316.275C292.005 316.166 292.056 316.036 292.088 315.883C292.121 315.727 292.137 315.553 292.137 315.361V314.741C292.137 314.553 292.121 314.381 292.088 314.225C292.056 314.069 292.005 313.937 291.936 313.828C291.871 313.719 291.784 313.636 291.675 313.578C291.566 313.516 291.436 313.485 291.284 313.485C291.131 313.485 291.001 313.516 290.892 313.578C290.783 313.636 290.694 313.719 290.626 313.828C290.56 313.937 290.511 314.069 290.479 314.225C290.446 314.381 290.43 314.553 290.43 314.741V315.361C290.43 315.553 290.446 315.727 290.479 315.883C290.511 316.036 290.56 316.166 290.626 316.275C290.694 316.384 290.783 316.469 290.892 316.53C291.001 316.588 291.131 316.617 291.284 316.617ZM291.284 315.372C291.157 315.372 291.068 315.347 291.017 315.296C290.97 315.245 290.946 315.184 290.946 315.111V314.992C290.946 314.919 290.97 314.857 291.017 314.807C291.068 314.756 291.157 314.731 291.284 314.731C291.41 314.731 291.497 314.756 291.545 314.807C291.595 314.857 291.621 314.919 291.621 314.992V315.111C291.621 315.184 291.595 315.245 291.545 315.296C291.497 315.347 291.41 315.372 291.284 315.372Z" fill="#EAFFFF"></path><path opacity="0.7" d="M307.132 316.949H304.598V316.482L305.865 315.34C306.05 315.173 306.202 315.002 306.322 314.828C306.442 314.651 306.502 314.464 306.502 314.268V314.203C306.502 313.975 306.442 313.799 306.322 313.676C306.202 313.549 306.025 313.485 305.789 313.485C305.557 313.485 305.378 313.545 305.251 313.665C305.128 313.781 305.035 313.937 304.973 314.132L304.566 313.98C304.602 313.868 304.651 313.759 304.712 313.654C304.778 313.545 304.859 313.449 304.957 313.366C305.055 313.282 305.173 313.215 305.311 313.164C305.452 313.114 305.615 313.088 305.8 313.088C305.989 313.088 306.155 313.115 306.3 313.17C306.449 313.224 306.572 313.3 306.67 313.398C306.772 313.496 306.848 313.612 306.899 313.746C306.953 313.88 306.98 314.027 306.98 314.187C306.98 314.332 306.958 314.468 306.915 314.595C306.875 314.721 306.817 314.843 306.741 314.959C306.668 315.075 306.579 315.189 306.474 315.301C306.373 315.41 306.259 315.519 306.132 315.628L305.071 316.552H307.132V316.949ZM309.159 317.014C308.927 317.014 308.727 316.971 308.56 316.884C308.394 316.793 308.256 316.665 308.147 316.498C308.038 316.331 307.959 316.126 307.908 315.883C307.857 315.64 307.832 315.363 307.832 315.051C307.832 314.743 307.857 314.468 307.908 314.225C307.959 313.978 308.038 313.772 308.147 313.605C308.256 313.438 308.394 313.311 308.56 313.224C308.727 313.134 308.927 313.088 309.159 313.088C309.391 313.088 309.59 313.134 309.757 313.224C309.924 313.311 310.061 313.438 310.17 313.605C310.279 313.772 310.359 313.978 310.409 314.225C310.46 314.468 310.485 314.743 310.485 315.051C310.485 315.363 310.46 315.64 310.409 315.883C310.359 316.126 310.279 316.331 310.17 316.498C310.061 316.665 309.924 316.793 309.757 316.884C309.59 316.971 309.391 317.014 309.159 317.014ZM309.159 316.617C309.311 316.617 309.441 316.588 309.55 316.53C309.659 316.469 309.746 316.384 309.811 316.275C309.88 316.166 309.931 316.036 309.963 315.883C309.996 315.727 310.012 315.553 310.012 315.361V314.741C310.012 314.553 309.996 314.381 309.963 314.225C309.931 314.069 309.88 313.937 309.811 313.828C309.746 313.719 309.659 313.636 309.55 313.578C309.441 313.516 309.311 313.485 309.159 313.485C309.006 313.485 308.876 313.516 308.767 313.578C308.658 313.636 308.569 313.719 308.501 313.828C308.435 313.937 308.386 314.069 308.354 314.225C308.321 314.381 308.305 314.553 308.305 314.741V315.361C308.305 315.553 308.321 315.727 308.354 315.883C308.386 316.036 308.435 316.166 308.501 316.275C308.569 316.384 308.658 316.469 308.767 316.53C308.876 316.588 309.006 316.617 309.159 316.617ZM309.159 315.372C309.032 315.372 308.943 315.347 308.892 315.296C308.845 315.245 308.821 315.184 308.821 315.111V314.992C308.821 314.919 308.845 314.857 308.892 314.807C308.943 314.756 309.032 314.731 309.159 314.731C309.285 314.731 309.372 314.756 309.42 314.807C309.47 314.857 309.496 314.919 309.496 314.992V315.111C309.496 315.184 309.47 315.245 309.42 315.296C309.372 315.347 309.285 315.372 309.159 315.372Z" fill="#EAFFFF"></path><path opacity="0.7" d="M323.555 314.763C323.82 314.763 324.018 314.705 324.148 314.589C324.282 314.469 324.349 314.317 324.349 314.132V314.094C324.349 313.891 324.284 313.739 324.154 313.637C324.027 313.536 323.86 313.485 323.653 313.485C323.45 313.485 323.285 313.531 323.158 313.621C323.035 313.708 322.934 313.824 322.854 313.969L322.511 313.708C322.558 313.632 322.616 313.558 322.685 313.485C322.754 313.409 322.834 313.342 322.925 313.284C323.019 313.226 323.126 313.179 323.245 313.143C323.369 313.106 323.508 313.088 323.664 313.088C323.827 313.088 323.98 313.11 324.121 313.153C324.262 313.193 324.386 313.255 324.491 313.338C324.596 313.418 324.677 313.518 324.735 313.637C324.797 313.757 324.828 313.893 324.828 314.045C324.828 314.169 324.808 314.279 324.768 314.377C324.732 314.475 324.679 314.56 324.61 314.633C324.545 314.705 324.467 314.767 324.377 314.818C324.286 314.868 324.19 314.906 324.088 314.932V314.953C324.193 314.975 324.295 315.011 324.393 315.062C324.491 315.109 324.578 315.173 324.654 315.253C324.73 315.329 324.79 315.423 324.833 315.535C324.88 315.644 324.904 315.769 324.904 315.911C324.904 316.074 324.871 316.224 324.806 316.362C324.745 316.496 324.656 316.612 324.54 316.71C324.427 316.804 324.29 316.879 324.126 316.933C323.967 316.987 323.789 317.014 323.593 317.014C323.427 317.014 323.278 316.996 323.148 316.96C323.021 316.924 322.906 316.875 322.805 316.813C322.707 316.752 322.62 316.683 322.544 316.607C322.471 316.53 322.406 316.451 322.348 316.367L322.691 316.106C322.741 316.182 322.794 316.251 322.848 316.313C322.903 316.375 322.964 316.429 323.033 316.476C323.106 316.52 323.187 316.554 323.278 316.579C323.369 316.605 323.474 316.617 323.593 316.617C323.862 316.617 324.067 316.556 324.208 316.433C324.353 316.309 324.425 316.134 324.425 315.905V315.862C324.425 315.637 324.355 315.463 324.213 315.34C324.076 315.216 323.867 315.155 323.588 315.155H323.137V314.763H323.555ZM327.034 317.014C326.802 317.014 326.602 316.971 326.435 316.884C326.269 316.793 326.131 316.665 326.022 316.498C325.913 316.331 325.834 316.126 325.783 315.883C325.732 315.64 325.707 315.363 325.707 315.051C325.707 314.743 325.732 314.468 325.783 314.225C325.834 313.978 325.913 313.772 326.022 313.605C326.131 313.438 326.269 313.311 326.435 313.224C326.602 313.134 326.802 313.088 327.034 313.088C327.266 313.088 327.465 313.134 327.632 313.224C327.799 313.311 327.936 313.438 328.045 313.605C328.154 313.772 328.234 313.978 328.284 314.225C328.335 314.468 328.36 314.743 328.36 315.051C328.36 315.363 328.335 315.64 328.284 315.883C328.234 316.126 328.154 316.331 328.045 316.498C327.936 316.665 327.799 316.793 327.632 316.884C327.465 316.971 327.266 317.014 327.034 317.014ZM327.034 316.617C327.186 316.617 327.316 316.588 327.425 316.53C327.534 316.469 327.621 316.384 327.686 316.275C327.755 316.166 327.806 316.036 327.838 315.883C327.871 315.727 327.887 315.553 327.887 315.361V314.741C327.887 314.553 327.871 314.381 327.838 314.225C327.806 314.069 327.755 313.937 327.686 313.828C327.621 313.719 327.534 313.636 327.425 313.578C327.316 313.516 327.186 313.485 327.034 313.485C326.881 313.485 326.751 313.516 326.642 313.578C326.533 313.636 326.444 313.719 326.376 313.828C326.31 313.937 326.261 314.069 326.229 314.225C326.196 314.381 326.18 314.553 326.18 314.741V315.361C326.18 315.553 326.196 315.727 326.229 315.883C326.261 316.036 326.31 316.166 326.376 316.275C326.444 316.384 326.533 316.469 326.642 316.53C326.751 316.588 326.881 316.617 327.034 316.617ZM327.034 315.372C326.907 315.372 326.818 315.347 326.767 315.296C326.72 315.245 326.696 315.184 326.696 315.111V314.992C326.696 314.919 326.72 314.857 326.767 314.807C326.818 314.756 326.907 314.731 327.034 314.731C327.16 314.731 327.247 314.756 327.295 314.807C327.345 314.857 327.371 314.919 327.371 314.992V315.111C327.371 315.184 327.345 315.245 327.295 315.296C327.247 315.347 327.16 315.372 327.034 315.372Z" fill="#EAFFFF"></path><path opacity="0.7" d="M342.026 316.949V316.204H340.155V315.802L341.797 313.153H342.461V315.829H343.026V316.204H342.461V316.949H342.026ZM340.563 315.829H342.026V313.507H342.004L340.563 315.829ZM344.916 317.014C344.684 317.014 344.485 316.971 344.318 316.884C344.151 316.793 344.014 316.665 343.905 316.498C343.796 316.331 343.716 316.126 343.666 315.883C343.615 315.64 343.59 315.363 343.59 315.051C343.59 314.743 343.615 314.468 343.666 314.225C343.716 313.978 343.796 313.772 343.905 313.605C344.014 313.438 344.151 313.311 344.318 313.224C344.485 313.134 344.684 313.088 344.916 313.088C345.148 313.088 345.348 313.134 345.515 313.224C345.681 313.311 345.819 313.438 345.928 313.605C346.037 313.772 346.116 313.978 346.167 314.225C346.218 314.468 346.243 314.743 346.243 315.051C346.243 315.363 346.218 315.64 346.167 315.883C346.116 316.126 346.037 316.331 345.928 316.498C345.819 316.665 345.681 316.793 345.515 316.884C345.348 316.971 345.148 317.014 344.916 317.014ZM344.916 316.617C345.069 316.617 345.199 316.588 345.308 316.53C345.417 316.469 345.504 316.384 345.569 316.275C345.638 316.166 345.689 316.036 345.721 315.883C345.754 315.727 345.77 315.553 345.77 315.361V314.741C345.77 314.553 345.754 314.381 345.721 314.225C345.689 314.069 345.638 313.937 345.569 313.828C345.504 313.719 345.417 313.636 345.308 313.578C345.199 313.516 345.069 313.485 344.916 313.485C344.764 313.485 344.634 313.516 344.525 313.578C344.416 313.636 344.327 313.719 344.258 313.828C344.193 313.937 344.144 314.069 344.112 314.225C344.079 314.381 344.063 314.553 344.063 314.741V315.361C344.063 315.553 344.079 315.727 344.112 315.883C344.144 316.036 344.193 316.166 344.258 316.275C344.327 316.384 344.416 316.469 344.525 316.53C344.634 316.588 344.764 316.617 344.916 316.617ZM344.916 315.372C344.79 315.372 344.701 315.347 344.65 315.296C344.603 315.245 344.579 315.184 344.579 315.111V314.992C344.579 314.919 344.603 314.857 344.65 314.807C344.701 314.756 344.79 314.731 344.916 314.731C345.043 314.731 345.13 314.756 345.177 314.807C345.228 314.857 345.254 314.919 345.254 314.992V315.111C345.254 315.184 345.228 315.245 345.177 315.296C345.13 315.347 345.043 315.372 344.916 315.372Z" fill="#EAFFFF"></path><path opacity="0.7" d="M360.569 313.55H358.873L358.764 315.002H358.802C358.896 314.876 359.001 314.776 359.117 314.703C359.233 314.627 359.393 314.589 359.596 314.589C359.763 314.589 359.915 314.616 360.053 314.671C360.194 314.721 360.316 314.798 360.417 314.899C360.519 315.001 360.598 315.124 360.656 315.269C360.714 315.41 360.743 315.573 360.743 315.758C360.743 315.943 360.714 316.114 360.656 316.269C360.598 316.422 360.513 316.554 360.401 316.666C360.288 316.775 360.152 316.86 359.993 316.922C359.833 316.984 359.652 317.014 359.449 317.014C359.29 317.014 359.146 316.996 359.02 316.96C358.896 316.924 358.786 316.875 358.688 316.813C358.594 316.752 358.51 316.683 358.438 316.607C358.365 316.53 358.3 316.451 358.242 316.367L358.585 316.106C358.635 316.182 358.686 316.251 358.737 316.313C358.791 316.375 358.853 316.429 358.922 316.476C358.991 316.52 359.068 316.554 359.155 316.579C359.243 316.605 359.344 316.617 359.46 316.617C359.721 316.617 359.92 316.547 360.058 316.405C360.2 316.264 360.27 316.068 360.27 315.818V315.775C360.27 315.524 360.2 315.329 360.058 315.187C359.917 315.046 359.714 314.975 359.449 314.975C359.268 314.975 359.126 315.006 359.025 315.068C358.927 315.129 358.836 315.205 358.753 315.296L358.367 315.242L358.503 313.153H360.569V313.55ZM362.791 317.014C362.559 317.014 362.36 316.971 362.193 316.884C362.026 316.793 361.889 316.665 361.78 316.498C361.671 316.331 361.591 316.126 361.541 315.883C361.49 315.64 361.465 315.363 361.465 315.051C361.465 314.743 361.49 314.468 361.541 314.225C361.591 313.978 361.671 313.772 361.78 313.605C361.889 313.438 362.026 313.311 362.193 313.224C362.36 313.134 362.559 313.088 362.791 313.088C363.023 313.088 363.223 313.134 363.39 313.224C363.556 313.311 363.694 313.438 363.803 313.605C363.912 313.772 363.991 313.978 364.042 314.225C364.093 314.468 364.118 314.743 364.118 315.051C364.118 315.363 364.093 315.64 364.042 315.883C363.991 316.126 363.912 316.331 363.803 316.498C363.694 316.665 363.556 316.793 363.39 316.884C363.223 316.971 363.023 317.014 362.791 317.014ZM362.791 316.617C362.944 316.617 363.074 316.588 363.183 316.53C363.292 316.469 363.379 316.384 363.444 316.275C363.513 316.166 363.564 316.036 363.596 315.883C363.629 315.727 363.645 315.553 363.645 315.361V314.741C363.645 314.553 363.629 314.381 363.596 314.225C363.564 314.069 363.513 313.937 363.444 313.828C363.379 313.719 363.292 313.636 363.183 313.578C363.074 313.516 362.944 313.485 362.791 313.485C362.639 313.485 362.509 313.516 362.4 313.578C362.291 313.636 362.202 313.719 362.133 313.828C362.068 313.937 362.019 314.069 361.987 314.225C361.954 314.381 361.938 314.553 361.938 314.741V315.361C361.938 315.553 361.954 315.727 361.987 315.883C362.019 316.036 362.068 316.166 362.133 316.275C362.202 316.384 362.291 316.469 362.4 316.53C362.509 316.588 362.639 316.617 362.791 316.617ZM362.791 315.372C362.665 315.372 362.576 315.347 362.525 315.296C362.478 315.245 362.454 315.184 362.454 315.111V314.992C362.454 314.919 362.478 314.857 362.525 314.807C362.576 314.756 362.665 314.731 362.791 314.731C362.918 314.731 363.005 314.756 363.052 314.807C363.103 314.857 363.129 314.919 363.129 314.992V315.111C363.129 315.184 363.103 315.245 363.052 315.296C363.005 315.347 362.918 315.372 362.791 315.372Z" fill="#EAFFFF"></path><path opacity="0.7" d="M377.357 317.014C377.157 317.014 376.978 316.982 376.818 316.917C376.659 316.848 376.523 316.752 376.411 316.628C376.302 316.501 376.217 316.347 376.155 316.166C376.097 315.985 376.068 315.782 376.068 315.557C376.068 315.274 376.11 315.01 376.193 314.763C376.28 314.513 376.389 314.286 376.519 314.083C376.653 313.877 376.802 313.695 376.965 313.54C377.128 313.38 377.288 313.251 377.444 313.153H378.031C377.824 313.302 377.64 313.447 377.476 313.589C377.317 313.73 377.176 313.879 377.052 314.034C376.929 314.187 376.826 314.352 376.742 314.529C376.659 314.703 376.59 314.901 376.536 315.122L376.563 315.133C376.653 314.977 376.773 314.848 376.922 314.747C377.07 314.642 377.263 314.589 377.498 314.589C377.665 314.589 377.817 314.616 377.955 314.671C378.093 314.725 378.212 314.803 378.314 314.905C378.415 315.006 378.493 315.129 378.548 315.274C378.606 315.419 378.635 315.581 378.635 315.758C378.635 315.943 378.604 316.114 378.542 316.269C378.481 316.422 378.394 316.554 378.281 316.666C378.172 316.775 378.038 316.86 377.879 316.922C377.723 316.984 377.549 317.014 377.357 317.014ZM377.351 316.628C377.612 316.628 377.814 316.558 377.955 316.416C378.1 316.275 378.172 316.076 378.172 315.818V315.775C378.172 315.517 378.1 315.318 377.955 315.176C377.814 315.035 377.612 314.964 377.351 314.964C377.09 314.964 376.887 315.035 376.742 315.176C376.601 315.318 376.53 315.517 376.53 315.775V315.818C376.53 316.076 376.601 316.275 376.742 316.416C376.887 316.558 377.09 316.628 377.351 316.628ZM380.666 317.014C380.434 317.014 380.235 316.971 380.068 316.884C379.901 316.793 379.764 316.665 379.655 316.498C379.546 316.331 379.466 316.126 379.416 315.883C379.365 315.64 379.34 315.363 379.34 315.051C379.34 314.743 379.365 314.468 379.416 314.225C379.466 313.978 379.546 313.772 379.655 313.605C379.764 313.438 379.901 313.311 380.068 313.224C380.235 313.134 380.434 313.088 380.666 313.088C380.898 313.088 381.098 313.134 381.265 313.224C381.431 313.311 381.569 313.438 381.678 313.605C381.787 313.772 381.866 313.978 381.917 314.225C381.968 314.468 381.993 314.743 381.993 315.051C381.993 315.363 381.968 315.64 381.917 315.883C381.866 316.126 381.787 316.331 381.678 316.498C381.569 316.665 381.431 316.793 381.265 316.884C381.098 316.971 380.898 317.014 380.666 317.014ZM380.666 316.617C380.819 316.617 380.949 316.588 381.058 316.53C381.167 316.469 381.254 316.384 381.319 316.275C381.388 316.166 381.439 316.036 381.471 315.883C381.504 315.727 381.52 315.553 381.52 315.361V314.741C381.52 314.553 381.504 314.381 381.471 314.225C381.439 314.069 381.388 313.937 381.319 313.828C381.254 313.719 381.167 313.636 381.058 313.578C380.949 313.516 380.819 313.485 380.666 313.485C380.514 313.485 380.384 313.516 380.275 313.578C380.166 313.636 380.077 313.719 380.008 313.828C379.943 313.937 379.894 314.069 379.862 314.225C379.829 314.381 379.813 314.553 379.813 314.741V315.361C379.813 315.553 379.829 315.727 379.862 315.883C379.894 316.036 379.943 316.166 380.008 316.275C380.077 316.384 380.166 316.469 380.275 316.53C380.384 316.588 380.514 316.617 380.666 316.617ZM380.666 315.372C380.54 315.372 380.451 315.347 380.4 315.296C380.353 315.245 380.329 315.184 380.329 315.111V314.992C380.329 314.919 380.353 314.857 380.4 314.807C380.451 314.756 380.54 314.731 380.666 314.731C380.793 314.731 380.88 314.756 380.927 314.807C380.978 314.857 381.004 314.919 381.004 314.992V315.111C381.004 315.184 380.978 315.245 380.927 315.296C380.88 315.347 380.793 315.372 380.666 315.372Z" fill="#EAFFFF"></path><path opacity="0.7" d="M394.536 316.949L396.02 313.545H394.356V314.252H393.948V313.153H396.483V313.556L395.025 316.949H394.536ZM398.541 317.014C398.309 317.014 398.11 316.971 397.943 316.884C397.776 316.793 397.639 316.665 397.53 316.498C397.421 316.331 397.341 316.126 397.291 315.883C397.24 315.64 397.215 315.363 397.215 315.051C397.215 314.743 397.24 314.468 397.291 314.225C397.341 313.978 397.421 313.772 397.53 313.605C397.639 313.438 397.776 313.311 397.943 313.224C398.11 313.134 398.309 313.088 398.541 313.088C398.773 313.088 398.973 313.134 399.14 313.224C399.306 313.311 399.444 313.438 399.553 313.605C399.662 313.772 399.741 313.978 399.792 314.225C399.843 314.468 399.868 314.743 399.868 315.051C399.868 315.363 399.843 315.64 399.792 315.883C399.741 316.126 399.662 316.331 399.553 316.498C399.444 316.665 399.306 316.793 399.14 316.884C398.973 316.971 398.773 317.014 398.541 317.014ZM398.541 316.617C398.694 316.617 398.824 316.588 398.933 316.53C399.042 316.469 399.129 316.384 399.194 316.275C399.263 316.166 399.314 316.036 399.346 315.883C399.379 315.727 399.395 315.553 399.395 315.361V314.741C399.395 314.553 399.379 314.381 399.346 314.225C399.314 314.069 399.263 313.937 399.194 313.828C399.129 313.719 399.042 313.636 398.933 313.578C398.824 313.516 398.694 313.485 398.541 313.485C398.389 313.485 398.259 313.516 398.15 313.578C398.041 313.636 397.952 313.719 397.883 313.828C397.818 313.937 397.769 314.069 397.737 314.225C397.704 314.381 397.688 314.553 397.688 314.741V315.361C397.688 315.553 397.704 315.727 397.737 315.883C397.769 316.036 397.818 316.166 397.883 316.275C397.952 316.384 398.041 316.469 398.15 316.53C398.259 316.588 398.389 316.617 398.541 316.617ZM398.541 315.372C398.415 315.372 398.326 315.347 398.275 315.296C398.228 315.245 398.204 315.184 398.204 315.111V314.992C398.204 314.919 398.228 314.857 398.275 314.807C398.326 314.756 398.415 314.731 398.541 314.731C398.668 314.731 398.755 314.756 398.802 314.807C398.853 314.857 398.879 314.919 398.879 314.992V315.111C398.879 315.184 398.853 315.245 398.802 315.296C398.755 315.347 398.668 315.372 398.541 315.372Z" fill="#EAFFFF"></path><path opacity="0.7" d="M413.101 317.014C412.88 317.014 412.686 316.987 412.519 316.933C412.353 316.875 412.213 316.797 412.101 316.699C411.992 316.601 411.909 316.485 411.851 316.351C411.796 316.217 411.769 316.072 411.769 315.916C411.769 315.655 411.84 315.448 411.981 315.296C412.122 315.144 412.309 315.037 412.541 314.975V314.932C412.338 314.863 412.177 314.752 412.057 314.6C411.941 314.444 411.883 314.257 411.883 314.04C411.883 313.75 411.99 313.52 412.204 313.349C412.418 313.175 412.717 313.088 413.101 313.088C413.486 313.088 413.785 313.175 413.999 313.349C414.213 313.52 414.319 313.75 414.319 314.04C414.319 314.257 414.26 314.444 414.14 314.6C414.024 314.752 413.864 314.863 413.661 314.932V314.975C413.893 315.037 414.08 315.144 414.222 315.296C414.363 315.448 414.434 315.655 414.434 315.916C414.434 316.072 414.405 316.217 414.347 316.351C414.292 316.485 414.209 316.601 414.096 316.699C413.984 316.797 413.845 316.875 413.678 316.933C413.515 316.987 413.322 317.014 413.101 317.014ZM413.101 316.628C413.37 316.628 413.58 316.569 413.732 316.449C413.884 316.329 413.961 316.161 413.961 315.943V315.824C413.961 315.606 413.884 315.437 413.732 315.318C413.584 315.198 413.373 315.138 413.101 315.138C412.829 315.138 412.617 315.198 412.465 315.318C412.316 315.437 412.242 315.606 412.242 315.824V315.943C412.242 316.161 412.318 316.329 412.471 316.449C412.623 316.569 412.833 316.628 413.101 316.628ZM413.101 314.769C413.348 314.769 413.535 314.716 413.661 314.611C413.792 314.506 413.857 314.355 413.857 314.16V314.083C413.857 313.888 413.79 313.737 413.656 313.632C413.526 313.527 413.341 313.474 413.101 313.474C412.862 313.474 412.675 313.527 412.541 313.632C412.411 313.737 412.345 313.888 412.345 314.083V314.16C412.345 314.355 412.409 314.506 412.536 314.611C412.666 314.716 412.855 314.769 413.101 314.769ZM416.416 317.014C416.184 317.014 415.985 316.971 415.818 316.884C415.651 316.793 415.514 316.665 415.405 316.498C415.296 316.331 415.216 316.126 415.166 315.883C415.115 315.64 415.09 315.363 415.09 315.051C415.09 314.743 415.115 314.468 415.166 314.225C415.216 313.978 415.296 313.772 415.405 313.605C415.514 313.438 415.651 313.311 415.818 313.224C415.985 313.134 416.184 313.088 416.416 313.088C416.648 313.088 416.848 313.134 417.015 313.224C417.181 313.311 417.319 313.438 417.428 313.605C417.537 313.772 417.616 313.978 417.667 314.225C417.718 314.468 417.743 314.743 417.743 315.051C417.743 315.363 417.718 315.64 417.667 315.883C417.616 316.126 417.537 316.331 417.428 316.498C417.319 316.665 417.181 316.793 417.015 316.884C416.848 316.971 416.648 317.014 416.416 317.014ZM416.416 316.617C416.569 316.617 416.699 316.588 416.808 316.53C416.917 316.469 417.004 316.384 417.069 316.275C417.138 316.166 417.189 316.036 417.221 315.883C417.254 315.727 417.27 315.553 417.27 315.361V314.741C417.27 314.553 417.254 314.381 417.221 314.225C417.189 314.069 417.138 313.937 417.069 313.828C417.004 313.719 416.917 313.636 416.808 313.578C416.699 313.516 416.569 313.485 416.416 313.485C416.264 313.485 416.134 313.516 416.025 313.578C415.916 313.636 415.827 313.719 415.758 313.828C415.693 313.937 415.644 314.069 415.612 314.225C415.579 314.381 415.563 314.553 415.563 314.741V315.361C415.563 315.553 415.579 315.727 415.612 315.883C415.644 316.036 415.693 316.166 415.758 316.275C415.827 316.384 415.916 316.469 416.025 316.53C416.134 316.588 416.264 316.617 416.416 316.617ZM416.416 315.372C416.29 315.372 416.201 315.347 416.15 315.296C416.103 315.245 416.079 315.184 416.079 315.111V314.992C416.079 314.919 416.103 314.857 416.15 314.807C416.201 314.756 416.29 314.731 416.416 314.731C416.543 314.731 416.63 314.756 416.677 314.807C416.728 314.857 416.754 314.919 416.754 314.992V315.111C416.754 315.184 416.728 315.245 416.677 315.296C416.63 315.347 416.543 315.372 416.416 315.372Z" fill="#EAFFFF"></path><path opacity="0.7" d="M432.26 314.546C432.26 314.828 432.216 315.095 432.129 315.345C432.046 315.592 431.937 315.818 431.803 316.025C431.669 316.228 431.52 316.409 431.357 316.569C431.197 316.724 431.04 316.851 430.884 316.949H430.297C430.503 316.801 430.686 316.656 430.846 316.514C431.009 316.373 431.152 316.226 431.275 316.074C431.399 315.918 431.502 315.753 431.585 315.579C431.669 315.401 431.738 315.202 431.792 314.981L431.765 314.97C431.671 315.126 431.549 315.256 431.401 315.361C431.255 315.463 431.065 315.514 430.83 315.514C430.663 315.514 430.509 315.486 430.367 315.432C430.23 315.378 430.11 315.3 430.008 315.198C429.91 315.097 429.833 314.975 429.775 314.834C429.72 314.689 429.693 314.526 429.693 314.344C429.693 314.16 429.722 313.991 429.78 313.839C429.842 313.683 429.929 313.55 430.041 313.442C430.153 313.329 430.288 313.242 430.443 313.181C430.603 313.119 430.779 313.088 430.971 313.088C431.17 313.088 431.35 313.123 431.509 313.192C431.669 313.257 431.803 313.353 431.912 313.48C432.024 313.603 432.109 313.755 432.167 313.937C432.229 314.118 432.26 314.321 432.26 314.546ZM430.976 315.138C431.237 315.138 431.439 315.068 431.58 314.926C431.725 314.785 431.797 314.585 431.797 314.328V314.285C431.797 314.027 431.725 313.828 431.58 313.686C431.439 313.545 431.237 313.474 430.976 313.474C430.715 313.474 430.512 313.545 430.367 313.686C430.226 313.828 430.155 314.027 430.155 314.285V314.328C430.155 314.585 430.226 314.785 430.367 314.926C430.512 315.068 430.715 315.138 430.976 315.138ZM434.291 317.014C434.059 317.014 433.86 316.971 433.693 316.884C433.526 316.793 433.389 316.665 433.28 316.498C433.171 316.331 433.091 316.126 433.041 315.883C432.99 315.64 432.965 315.363 432.965 315.051C432.965 314.743 432.99 314.468 433.041 314.225C433.091 313.978 433.171 313.772 433.28 313.605C433.389 313.438 433.526 313.311 433.693 313.224C433.86 313.134 434.059 313.088 434.291 313.088C434.523 313.088 434.723 313.134 434.89 313.224C435.056 313.311 435.194 313.438 435.303 313.605C435.412 313.772 435.491 313.978 435.542 314.225C435.593 314.468 435.618 314.743 435.618 315.051C435.618 315.363 435.593 315.64 435.542 315.883C435.491 316.126 435.412 316.331 435.303 316.498C435.194 316.665 435.056 316.793 434.89 316.884C434.723 316.971 434.523 317.014 434.291 317.014ZM434.291 316.617C434.444 316.617 434.574 316.588 434.683 316.53C434.792 316.469 434.879 316.384 434.944 316.275C435.013 316.166 435.064 316.036 435.096 315.883C435.129 315.727 435.145 315.553 435.145 315.361V314.741C435.145 314.553 435.129 314.381 435.096 314.225C435.064 314.069 435.013 313.937 434.944 313.828C434.879 313.719 434.792 313.636 434.683 313.578C434.574 313.516 434.444 313.485 434.291 313.485C434.139 313.485 434.009 313.516 433.9 313.578C433.791 313.636 433.702 313.719 433.633 313.828C433.568 313.937 433.519 314.069 433.487 314.225C433.454 314.381 433.438 314.553 433.438 314.741V315.361C433.438 315.553 433.454 315.727 433.487 315.883C433.519 316.036 433.568 316.166 433.633 316.275C433.702 316.384 433.791 316.469 433.9 316.53C434.009 316.588 434.139 316.617 434.291 316.617ZM434.291 315.372C434.165 315.372 434.076 315.347 434.025 315.296C433.978 315.245 433.954 315.184 433.954 315.111V314.992C433.954 314.919 433.978 314.857 434.025 314.807C434.076 314.756 434.165 314.731 434.291 314.731C434.418 314.731 434.505 314.756 434.552 314.807C434.603 314.857 434.629 314.919 434.629 314.992V315.111C434.629 315.184 434.603 315.245 434.552 315.296C434.505 315.347 434.418 315.372 434.291 315.372Z" fill="#EAFFFF"></path><path opacity="0.7" d="M447.525 316.949V316.552H448.612V313.491H448.574L447.617 314.382L447.351 314.094L448.357 313.153H449.069V316.552H450.07V316.949H447.525ZM452.009 317.014C451.777 317.014 451.577 316.971 451.411 316.884C451.244 316.793 451.106 316.665 450.997 316.498C450.889 316.331 450.809 316.126 450.758 315.883C450.707 315.64 450.682 315.363 450.682 315.051C450.682 314.743 450.707 314.468 450.758 314.225C450.809 313.978 450.889 313.772 450.997 313.605C451.106 313.438 451.244 313.311 451.411 313.224C451.577 313.134 451.777 313.088 452.009 313.088C452.241 313.088 452.44 313.134 452.607 313.224C452.774 313.311 452.912 313.438 453.02 313.605C453.129 313.772 453.209 313.978 453.26 314.225C453.31 314.468 453.336 314.743 453.336 315.051C453.336 315.363 453.31 315.64 453.26 315.883C453.209 316.126 453.129 316.331 453.02 316.498C452.912 316.665 452.774 316.793 452.607 316.884C452.44 316.971 452.241 317.014 452.009 317.014ZM452.009 316.617C452.161 316.617 452.292 316.588 452.4 316.53C452.509 316.469 452.596 316.384 452.661 316.275C452.73 316.166 452.781 316.036 452.814 315.883C452.846 315.727 452.863 315.553 452.863 315.361V314.741C452.863 314.553 452.846 314.381 452.814 314.225C452.781 314.069 452.73 313.937 452.661 313.828C452.596 313.719 452.509 313.636 452.4 313.578C452.292 313.516 452.161 313.485 452.009 313.485C451.857 313.485 451.726 313.516 451.617 313.578C451.509 313.636 451.42 313.719 451.351 313.828C451.286 313.937 451.237 314.069 451.204 314.225C451.171 314.381 451.155 314.553 451.155 314.741V315.361C451.155 315.553 451.171 315.727 451.204 315.883C451.237 316.036 451.286 316.166 451.351 316.275C451.42 316.384 451.509 316.469 451.617 316.53C451.726 316.588 451.857 316.617 452.009 316.617ZM452.009 315.372C451.882 315.372 451.793 315.347 451.742 315.296C451.695 315.245 451.672 315.184 451.672 315.111V314.992C451.672 314.919 451.695 314.857 451.742 314.807C451.793 314.756 451.882 314.731 452.009 314.731C452.136 314.731 452.223 314.756 452.27 314.807C452.321 314.857 452.346 314.919 452.346 314.992V315.111C452.346 315.184 452.321 315.245 452.27 315.296C452.223 315.347 452.136 315.372 452.009 315.372ZM455.324 317.014C455.092 317.014 454.893 316.971 454.726 316.884C454.559 316.793 454.421 316.665 454.312 316.498C454.204 316.331 454.124 316.126 454.073 315.883C454.022 315.64 453.997 315.363 453.997 315.051C453.997 314.743 454.022 314.468 454.073 314.225C454.124 313.978 454.204 313.772 454.312 313.605C454.421 313.438 454.559 313.311 454.726 313.224C454.893 313.134 455.092 313.088 455.324 313.088C455.556 313.088 455.755 313.134 455.922 313.224C456.089 313.311 456.227 313.438 456.335 313.605C456.444 313.772 456.524 313.978 456.575 314.225C456.625 314.468 456.651 314.743 456.651 315.051C456.651 315.363 456.625 315.64 456.575 315.883C456.524 316.126 456.444 316.331 456.335 316.498C456.227 316.665 456.089 316.793 455.922 316.884C455.755 316.971 455.556 317.014 455.324 317.014ZM455.324 316.617C455.476 316.617 455.607 316.588 455.715 316.53C455.824 316.469 455.911 316.384 455.977 316.275C456.045 316.166 456.096 316.036 456.129 315.883C456.161 315.727 456.178 315.553 456.178 315.361V314.741C456.178 314.553 456.161 314.381 456.129 314.225C456.096 314.069 456.045 313.937 455.977 313.828C455.911 313.719 455.824 313.636 455.715 313.578C455.607 313.516 455.476 313.485 455.324 313.485C455.172 313.485 455.041 313.516 454.932 313.578C454.824 313.636 454.735 313.719 454.666 313.828C454.601 313.937 454.552 314.069 454.519 314.225C454.486 314.381 454.47 314.553 454.47 314.741V315.361C454.47 315.553 454.486 315.727 454.519 315.883C454.552 316.036 454.601 316.166 454.666 316.275C454.735 316.384 454.824 316.469 454.932 316.53C455.041 316.588 455.172 316.617 455.324 316.617ZM455.324 315.372C455.197 315.372 455.108 315.347 455.057 315.296C455.01 315.245 454.987 315.184 454.987 315.111V314.992C454.987 314.919 455.01 314.857 455.057 314.807C455.108 314.756 455.197 314.731 455.324 314.731C455.451 314.731 455.538 314.756 455.585 314.807C455.636 314.857 455.661 314.919 455.661 314.992V315.111C455.661 315.184 455.636 315.245 455.585 315.296C455.538 315.347 455.451 315.372 455.324 315.372Z" fill="#EAFFFF"></path><path opacity="0.7" d="M468.4 316.949V316.552H469.487V313.491H469.449L468.492 314.382L468.226 314.094L469.232 313.153H469.944V316.552H470.945V316.949H468.4ZM471.715 316.949V316.552H472.802V313.491H472.764L471.807 314.382L471.541 314.094L472.547 313.153H473.259V316.552H474.26V316.949H471.715ZM476.199 317.014C475.967 317.014 475.768 316.971 475.601 316.884C475.434 316.793 475.296 316.665 475.187 316.498C475.079 316.331 474.999 316.126 474.948 315.883C474.897 315.64 474.872 315.363 474.872 315.051C474.872 314.743 474.897 314.468 474.948 314.225C474.999 313.978 475.079 313.772 475.187 313.605C475.296 313.438 475.434 313.311 475.601 313.224C475.768 313.134 475.967 313.088 476.199 313.088C476.431 313.088 476.63 313.134 476.797 313.224C476.964 313.311 477.102 313.438 477.21 313.605C477.319 313.772 477.399 313.978 477.45 314.225C477.5 314.468 477.526 314.743 477.526 315.051C477.526 315.363 477.5 315.64 477.45 315.883C477.399 316.126 477.319 316.331 477.21 316.498C477.102 316.665 476.964 316.793 476.797 316.884C476.63 316.971 476.431 317.014 476.199 317.014ZM476.199 316.617C476.351 316.617 476.482 316.588 476.59 316.53C476.699 316.469 476.786 316.384 476.852 316.275C476.92 316.166 476.971 316.036 477.004 315.883C477.036 315.727 477.053 315.553 477.053 315.361V314.741C477.053 314.553 477.036 314.381 477.004 314.225C476.971 314.069 476.92 313.937 476.852 313.828C476.786 313.719 476.699 313.636 476.59 313.578C476.482 313.516 476.351 313.485 476.199 313.485C476.047 313.485 475.916 313.516 475.807 313.578C475.699 313.636 475.61 313.719 475.541 313.828C475.476 313.937 475.427 314.069 475.394 314.225C475.361 314.381 475.345 314.553 475.345 314.741V315.361C475.345 315.553 475.361 315.727 475.394 315.883C475.427 316.036 475.476 316.166 475.541 316.275C475.61 316.384 475.699 316.469 475.807 316.53C475.916 316.588 476.047 316.617 476.199 316.617ZM476.199 315.372C476.072 315.372 475.983 315.347 475.932 315.296C475.885 315.245 475.862 315.184 475.862 315.111V314.992C475.862 314.919 475.885 314.857 475.932 314.807C475.983 314.756 476.072 314.731 476.199 314.731C476.326 314.731 476.413 314.756 476.46 314.807C476.511 314.857 476.536 314.919 476.536 314.992V315.111C476.536 315.184 476.511 315.245 476.46 315.296C476.413 315.347 476.326 315.372 476.199 315.372Z" fill="#EAFFFF"></path><path opacity="0.7" d="M489.282 316.949V316.552H490.37V313.491H490.332L489.375 314.382L489.108 314.094L490.114 313.153H490.827V316.552H491.827V316.949H489.282ZM495.055 316.949H492.521V316.482L493.788 315.34C493.973 315.173 494.126 315.002 494.245 314.828C494.365 314.651 494.425 314.464 494.425 314.268V314.203C494.425 313.975 494.365 313.799 494.245 313.676C494.126 313.549 493.948 313.485 493.712 313.485C493.48 313.485 493.301 313.545 493.174 313.665C493.051 313.781 492.958 313.937 492.897 314.132L492.489 313.98C492.525 313.868 492.574 313.759 492.636 313.654C492.701 313.545 492.782 313.449 492.88 313.366C492.978 313.282 493.096 313.215 493.234 313.164C493.375 313.114 493.538 313.088 493.723 313.088C493.912 313.088 494.078 313.115 494.223 313.17C494.372 313.224 494.495 313.3 494.593 313.398C494.695 313.496 494.771 313.612 494.822 313.746C494.876 313.88 494.903 314.027 494.903 314.187C494.903 314.332 494.881 314.468 494.838 314.595C494.798 314.721 494.74 314.843 494.664 314.959C494.591 315.075 494.503 315.189 494.397 315.301C494.296 315.41 494.182 315.519 494.055 315.628L492.994 316.552H495.055V316.949ZM497.082 317.014C496.85 317.014 496.65 316.971 496.484 316.884C496.317 316.793 496.179 316.665 496.07 316.498C495.962 316.331 495.882 316.126 495.831 315.883C495.78 315.64 495.755 315.363 495.755 315.051C495.755 314.743 495.78 314.468 495.831 314.225C495.882 313.978 495.962 313.772 496.07 313.605C496.179 313.438 496.317 313.311 496.484 313.224C496.65 313.134 496.85 313.088 497.082 313.088C497.314 313.088 497.513 313.134 497.68 313.224C497.847 313.311 497.984 313.438 498.093 313.605C498.202 313.772 498.282 313.978 498.332 314.225C498.383 314.468 498.409 314.743 498.409 315.051C498.409 315.363 498.383 315.64 498.332 315.883C498.282 316.126 498.202 316.331 498.093 316.498C497.984 316.665 497.847 316.793 497.68 316.884C497.513 316.971 497.314 317.014 497.082 317.014ZM497.082 316.617C497.234 316.617 497.365 316.588 497.473 316.53C497.582 316.469 497.669 316.384 497.734 316.275C497.803 316.166 497.854 316.036 497.887 315.883C497.919 315.727 497.936 315.553 497.936 315.361V314.741C497.936 314.553 497.919 314.381 497.887 314.225C497.854 314.069 497.803 313.937 497.734 313.828C497.669 313.719 497.582 313.636 497.473 313.578C497.365 313.516 497.234 313.485 497.082 313.485C496.929 313.485 496.799 313.516 496.69 313.578C496.581 313.636 496.493 313.719 496.424 313.828C496.358 313.937 496.31 314.069 496.277 314.225C496.244 314.381 496.228 314.553 496.228 314.741V315.361C496.228 315.553 496.244 315.727 496.277 315.883C496.31 316.036 496.358 316.166 496.424 316.275C496.493 316.384 496.581 316.469 496.69 316.53C496.799 316.588 496.929 316.617 497.082 316.617ZM497.082 315.372C496.955 315.372 496.866 315.347 496.815 315.296C496.768 315.245 496.745 315.184 496.745 315.111V314.992C496.745 314.919 496.768 314.857 496.815 314.807C496.866 314.756 496.955 314.731 497.082 314.731C497.209 314.731 497.296 314.756 497.343 314.807C497.394 314.857 497.419 314.919 497.419 314.992V315.111C497.419 315.184 497.394 315.245 497.343 315.296C497.296 315.347 497.209 315.372 497.082 315.372Z" fill="#EAFFFF"></path></g><rect opacity="0.3" x="206" y="177.812" width="58.0055" height="3.62534" rx="1.81267" fill="url(#paint0_linear_2072_99471)"></rect><rect opacity="0.3" x="213.25" y="190.5" width="50.7548" height="3.62534" rx="1.81267" fill="url(#paint1_linear_2072_99471)"></rect><rect opacity="0.3" x="227.75" y="203.191" width="36.2534" height="3.62534" rx="1.81267" fill="url(#paint2_linear_2072_99471)"></rect><rect opacity="0.3" x="224.125" y="215.879" width="39.8788" height="3.62534" rx="1.81267" fill="url(#paint3_linear_2072_99471)"></rect><rect opacity="0.3" x="215.062" y="228.566" width="48.9422" height="3.62534" rx="1.81267" fill="url(#paint4_linear_2072_99471)"></rect><rect opacity="0.3" x="220.5" y="241.258" width="43.5041" height="3.62534" rx="1.81267" fill="url(#paint5_linear_2072_99471)"></rect><rect opacity="0.3" x="227.75" y="253.945" width="36.2534" height="3.62534" rx="1.81267" fill="url(#paint6_linear_2072_99471)"></rect><rect opacity="0.3" x="218.688" y="266.633" width="45.3168" height="3.62534" rx="1.81267" fill="url(#paint7_linear_2072_99471)"></rect><rect opacity="0.3" x="227.75" y="279.32" width="36.2534" height="3.62534" rx="1.81267" fill="url(#paint8_linear_2072_99471)"></rect><rect opacity="0.3" x="218.688" y="292.012" width="45.3168" height="3.62534" rx="1.81267" fill="url(#paint9_linear_2072_99471)"></rect><g opacity="0.7"><g clip-path="url(#clip1_2072_99471)"><rect x="271.258" y="176" width="1.81267" height="7.25069" fill="#E359FF"></rect><rect x="273.07" y="176" width="38.0661" height="7.25069" fill="#3AFCFC"></rect><rect x="311.133" y="176" width="77.9449" height="7.25069" fill="#8655FF"></rect></g><g clip-path="url(#clip2_2072_99471)"><rect x="271.258" y="188.688" width="7.25069" height="7.25069" fill="#E359FF"></rect><rect x="278.508" y="188.688" width="38.0661" height="7.25069" fill="#3AFCFC"></rect><rect x="316.578" y="188.688" width="56.1928" height="7.25069" fill="#8655FF"></rect></g><g clip-path="url(#clip3_2072_99471)"><rect x="271.258" y="201.379" width="14.5014" height="7.25069" fill="#E359FF"></rect><rect x="285.758" y="201.379" width="38.0661" height="7.25069" fill="#3AFCFC"></rect><rect x="323.828" y="201.379" width="90.6336" height="7.25069" fill="#8655FF"></rect></g><g clip-path="url(#clip4_2072_99471)"><rect x="271.258" y="214.066" width="9.06336" height="7.25069" fill="#E359FF"></rect><rect x="280.32" y="214.066" width="38.0661" height="7.25069" fill="#3AFCFC"></rect><rect x="318.391" y="214.066" width="36.2534" height="7.25069" fill="#8655FF"></rect></g><g clip-path="url(#clip5_2072_99471)"><rect x="271.258" y="226.754" width="14.5014" height="7.25069" fill="#E359FF"></rect><rect x="285.758" y="226.754" width="25.3774" height="7.25069" fill="#3AFCFC"></rect><rect x="311.133" y="226.754" width="61.6309" height="7.25069" fill="#8655FF"></rect></g><g clip-path="url(#clip6_2072_99471)"><rect x="271.258" y="239.445" width="5.43802" height="7.25069" fill="#E359FF"></rect><rect x="276.695" y="239.445" width="29.0028" height="7.25069" fill="#3AFCFC"></rect><rect x="305.695" y="239.445" width="39.8788" height="7.25069" fill="#8655FF"></rect></g><g clip-path="url(#clip7_2072_99471)"><rect x="271.258" y="252.133" width="9.06336" height="7.25069" fill="#E359FF"></rect><rect x="280.32" y="252.133" width="21.7521" height="7.25069" fill="#3AFCFC"></rect><rect x="302.07" y="252.133" width="152.264" height="7.25069" fill="#8655FF"></rect></g><g clip-path="url(#clip8_2072_99471)"><rect x="271.258" y="264.82" width="5.43802" height="7.25069" fill="#E359FF"></rect><rect x="276.695" y="264.82" width="30.8154" height="7.25069" fill="#3AFCFC"></rect><rect x="307.508" y="264.82" width="195.769" height="7.25069" fill="#8655FF"></rect></g><g clip-path="url(#clip9_2072_99471)"><rect x="271.258" y="277.508" width="7.25069" height="7.25069" fill="#E359FF"></rect><rect x="278.508" y="277.508" width="41.6915" height="7.25069" fill="#3AFCFC"></rect><rect x="320.203" y="277.508" width="123.262" height="7.25069" fill="#8655FF"></rect></g><g clip-path="url(#clip10_2072_99471)"><rect x="271.258" y="290.199" width="5.43802" height="7.25069" fill="#E359FF"></rect><rect x="276.695" y="290.199" width="30.8154" height="7.25069" fill="#3AFCFC"></rect><rect x="307.508" y="290.199" width="192.143" height="7.25069" fill="#8655FF"></rect></g></g><rect x="447.086" y="176" width="7.25069" height="7.25069" fill="#473391"></rect><rect opacity="0.3" x="461.586" y="177.812" width="41.6915" height="3.62534" rx="1.81267" fill="url(#paint10_linear_2072_99471)"></rect><rect x="447.086" y="188.688" width="7.25069" height="7.25069" fill="#21878F"></rect><rect opacity="0.3" x="461.586" y="190.5" width="27.1901" height="3.62534" rx="1.81267" fill="url(#paint11_linear_2072_99471)"></rect><rect x="447.086" y="201.379" width="7.25069" height="7.25069" fill="#A244BE"></rect><rect opacity="0.3" x="461.586" y="203.191" width="41.6915" height="3.62534" rx="1.81267" fill="url(#paint12_linear_2072_99471)"></rect><g opacity="0.7"><circle cx="276.485" cy="422.75" r="70.4847" fill="#8655FF"></circle><path d="M276.485 352.266C289.021 352.266 301.33 355.609 312.144 361.951C322.958 368.294 331.884 377.405 338.003 388.347C344.122 399.288 347.212 411.664 346.955 424.197C346.697 436.731 343.102 448.969 336.539 459.65L276.485 422.75V352.266Z" fill="#E359FF"></path><path d="M276.485 352.266C286.987 352.266 297.357 354.613 306.836 359.135C316.315 363.657 324.663 370.241 331.271 378.404C337.878 386.567 342.578 396.104 345.027 406.317C347.476 416.53 347.611 427.161 345.423 437.433L276.485 422.75V352.266Z" fill="#8655FF"></path><path d="M276.485 352.266C293.884 352.266 310.668 358.701 323.607 370.333C336.546 381.965 344.726 397.972 346.572 415.272L276.485 422.75V352.266Z" fill="#EAFFFF"></path><path d="M276.485 352.266C292.142 352.266 307.354 357.479 319.72 367.083C332.086 376.688 340.902 390.136 344.777 405.307L276.485 422.75V352.266Z" fill="#D1FF5F"></path><path d="M276.485 352.266C293.469 352.266 309.882 358.399 322.705 369.536L276.485 422.75V352.266Z" fill="#3AFCFC"></path><path d="M276.485 352.266C286.439 352.266 296.28 354.374 305.361 358.452L276.485 422.75V352.266Z" fill="#0091FF"></path><path d="M276.485 352.266C283.192 352.266 289.864 353.223 296.301 355.109L276.485 422.75V352.266Z" fill="#8655FF"></path></g><rect opacity="0.3" x="386.273" y="352.266" width="58.0055" height="3.62534" rx="1.81267" fill="url(#paint13_linear_2072_99471)"></rect><rect opacity="0.3" x="386.273" y="364.891" width="50.7548" height="3.62534" rx="1.81267" fill="url(#paint14_linear_2072_99471)"></rect><rect opacity="0.3" x="386.273" y="377.516" width="36.2534" height="3.62534" rx="1.81267" fill="url(#paint15_linear_2072_99471)"></rect><rect opacity="0.3" x="386.273" y="390.141" width="36.2534" height="3.62534" rx="1.81267" fill="url(#paint16_linear_2072_99471)"></rect><rect opacity="0.3" x="386.273" y="402.766" width="39.8788" height="3.62534" rx="1.81267" fill="url(#paint17_linear_2072_99471)"></rect><rect opacity="0.3" x="386.273" y="415.391" width="39.8788" height="3.62534" rx="1.81267" fill="url(#paint18_linear_2072_99471)"></rect><rect opacity="0.3" x="386.273" y="428.02" width="48.9422" height="3.62534" rx="1.81267" fill="url(#paint19_linear_2072_99471)"></rect><rect opacity="0.3" x="386.273" y="440.645" width="48.9422" height="3.62534" rx="1.81267" fill="url(#paint20_linear_2072_99471)"></rect><rect opacity="0.3" x="386.273" y="453.27" width="36.2534" height="3.62534" rx="1.81267" fill="url(#paint21_linear_2072_99471)"></rect><rect opacity="0.3" x="386.273" y="465.895" width="48.9422" height="3.62534" rx="1.81267" fill="url(#paint22_linear_2072_99471)"></rect><rect opacity="0.3" x="386.273" y="478.52" width="39.8788" height="3.62534" rx="1.81267" fill="url(#paint23_linear_2072_99471)"></rect><path d="M166 150.501C166 142.492 172.492 136 180.501 136H588V520.267C588 528.276 581.508 534.769 573.499 534.769H166V150.501Z" stroke="url(#paint24_linear_2072_99471)" stroke-width="2" shape-rendering="crispEdges"></path></g><path opacity="0.6" d="M71.3964 319.552C76.4717 325.657 85.1974 328.35 96.785 327.863C108.363 327.376 122.7 323.716 138.849 317.237C171.142 304.282 210.572 280.104 249.473 247.765C288.373 215.425 319.346 181.074 337.982 151.69C347.301 136.996 353.519 123.569 356.112 112.275C358.707 100.971 357.653 91.9003 352.577 85.7952C347.502 79.6902 338.776 76.997 327.189 77.484C315.611 77.9706 301.274 81.6314 285.125 88.11C252.832 101.065 213.401 125.243 174.501 157.582C135.601 189.922 104.627 224.273 85.9922 253.657C76.673 268.351 70.4552 281.778 67.8621 293.072C65.2668 304.376 66.321 313.447 71.3964 319.552Z" stroke="url(#paint25_linear_2072_99471)"></path><path opacity="0.3" d="M76.371 265.701C80.1718 270.273 86.7199 272.306 95.4612 271.939C104.193 271.572 115.015 268.81 127.214 263.916C151.606 254.13 181.398 235.864 210.793 211.427C240.187 186.99 263.588 161.036 277.664 138.841C284.704 127.741 289.396 117.606 291.352 109.088C293.309 100.561 292.506 93.7511 288.705 89.1793C284.905 84.6074 278.356 82.574 269.615 82.9414C260.883 83.3084 250.062 86.0701 237.863 90.9641C213.47 100.75 183.678 119.016 154.284 143.453C124.889 167.89 101.488 193.845 87.412 216.04C80.3722 227.14 75.6804 237.275 73.7248 245.793C71.767 254.32 72.5702 261.129 76.371 265.701Z" stroke="url(#paint26_linear_2072_99471)"></path><path opacity="0.1" d="M91.9699 206.048C94.2509 208.791 98.2027 210.038 103.55 209.813C108.888 209.589 115.518 207.899 123.007 204.895C137.98 198.888 156.279 187.67 174.339 172.656C192.4 157.642 206.771 141.7 215.411 128.076C219.733 121.261 222.605 115.051 223.801 109.844C224.999 104.628 224.495 100.515 222.214 97.771C219.933 95.0272 215.981 93.7806 210.634 94.0053C205.296 94.2297 198.666 95.9194 191.176 98.9239C176.203 104.931 157.905 116.149 139.844 131.163C121.784 146.177 107.413 162.119 98.7723 175.743C94.4504 182.557 91.5782 188.767 90.3827 193.975C89.185 199.191 89.6889 203.304 91.9699 206.048Z" stroke="url(#paint27_linear_2072_99471)"></path><g opacity="0.5"><path d="M84.7004 124.317V120.047H83.3281V118.159H84.6887V115.907H86.8468V118.159H88.5123V120.047H86.8585V123.742C86.8585 124.27 87.1283 124.657 87.6092 124.657C87.879 124.669 88.1487 124.575 88.3598 124.399L88.8173 126.053C88.4889 126.346 87.9141 126.58 87.011 126.58C85.498 126.58 84.7004 125.795 84.7004 124.317ZM89.0167 122.252C89.0167 119.871 90.7877 117.936 93.2743 117.936C95.7608 117.936 97.3911 119.778 97.3911 122.452V122.968H91.2804C91.4328 123.977 92.2539 124.809 93.6613 124.809C94.3533 124.809 95.3151 124.516 95.8429 124.012L96.8164 125.443C95.9954 126.193 94.7052 126.58 93.4268 126.58C90.9168 126.58 89.0167 124.891 89.0167 122.252ZM93.2743 119.719C91.9254 119.719 91.3507 120.657 91.2686 121.478H95.3151C95.2565 120.692 94.7052 119.719 93.2743 119.719ZM103.76 126.369V121.408C103.76 120.27 103.162 119.871 102.247 119.871C101.508 119.883 100.816 120.235 100.37 120.821V126.369H98.2122V118.147H100.37V119.203C101.109 118.394 102.153 117.936 103.244 117.936C105.062 117.936 105.93 118.957 105.93 120.563V126.369H103.76ZM112.099 126.369V125.501C111.536 126.182 110.563 126.58 109.495 126.58C108.182 126.58 106.657 125.701 106.657 123.859C106.657 121.912 108.193 121.209 109.495 121.209C110.598 121.209 111.56 121.572 112.099 122.217V121.173C112.099 120.341 111.384 119.801 110.293 119.801C109.402 119.813 108.557 120.153 107.912 120.775L107.056 119.262C108.053 118.405 109.331 117.936 110.645 117.971C112.533 117.971 114.257 118.722 114.257 121.091V126.404H112.099V126.369ZM112.099 124.399V123.378C111.747 122.897 111.067 122.651 110.375 122.651C109.519 122.651 108.827 123.109 108.827 123.894C108.827 124.68 109.519 125.114 110.375 125.114C111.055 125.114 111.736 124.88 112.099 124.399ZM115.196 126.369V115.016H117.354V119.203C117.952 118.405 118.89 117.936 119.887 117.936C121.987 117.936 123.535 119.566 123.535 122.252C123.535 125.009 121.975 126.569 119.887 126.569C118.89 126.569 117.952 126.099 117.354 125.314V126.369H115.196ZM119.242 124.645C120.485 124.645 121.318 123.672 121.318 122.241C121.318 120.81 120.485 119.86 119.242 119.86C118.503 119.871 117.811 120.223 117.366 120.81V123.719C117.823 124.305 118.503 124.645 119.242 124.645ZM124.274 126.369V115.016H126.432V126.369H124.274ZM127.253 122.252C127.253 119.871 129.024 117.936 131.511 117.936C133.997 117.936 135.628 119.778 135.628 122.452V122.968H129.517C129.669 123.977 130.49 124.809 131.898 124.809C132.59 124.809 133.551 124.516 134.079 124.012L135.053 125.443C134.232 126.193 132.942 126.58 131.663 126.58C129.141 126.58 127.253 124.891 127.253 122.252ZM131.499 119.719C130.15 119.719 129.575 120.657 129.493 121.478H133.54C133.481 120.692 132.93 119.719 131.499 119.719ZM136.284 117.115C136.39 117.174 136.484 117.268 136.542 117.373C136.601 117.479 136.636 117.608 136.636 117.737C136.636 117.866 136.601 117.983 136.542 118.1C136.484 118.206 136.39 118.3 136.284 118.358C136.179 118.417 136.05 118.452 135.921 118.452C135.663 118.452 135.428 118.323 135.311 118.1C135.252 117.995 135.217 117.866 135.217 117.737C135.217 117.608 135.252 117.479 135.311 117.373C135.369 117.268 135.463 117.174 135.569 117.115C135.674 117.045 135.803 117.021 135.921 117.021C136.05 117.021 136.179 117.056 136.284 117.115ZM136.214 118.241C136.296 118.194 136.366 118.112 136.413 118.03C136.507 117.842 136.507 117.619 136.413 117.432C136.366 117.338 136.296 117.268 136.214 117.221C136.132 117.174 136.026 117.139 135.921 117.15C135.815 117.15 135.721 117.174 135.639 117.221C135.557 117.268 135.487 117.35 135.44 117.432C135.346 117.619 135.346 117.842 135.44 118.03C135.487 118.124 135.557 118.194 135.639 118.241C135.721 118.288 135.827 118.323 135.921 118.311C136.026 118.323 136.132 118.288 136.214 118.241ZM136.179 117.713C136.144 117.748 136.097 117.784 136.05 117.795L136.261 118.112H136.073L135.897 117.819H135.827V118.112H135.663V117.326H135.874C136.108 117.326 136.214 117.408 136.214 117.561C136.226 117.631 136.214 117.678 136.179 117.713ZM135.827 117.69H135.909C136.015 117.69 136.061 117.655 136.061 117.573C136.061 117.537 136.05 117.502 136.026 117.49C135.991 117.467 135.944 117.467 135.909 117.467H135.827V117.69Z" fill="#EAFFFF"></path><path d="M79.9814 115.928C80.0283 116.092 80.1808 116.69 80.3333 117.253L81.5296 121.722C81.6821 122.285 81.8463 122.883 81.8815 123.047C81.9402 123.294 81.8698 123.552 81.6938 123.728L80.7203 124.701L77.4597 127.962C77.0492 128.396 76.6269 128.83 76.4862 128.935C76.2985 129.099 76.0405 129.17 75.8059 129.123L74.4805 128.771L70.0118 127.575L68.6864 127.223C68.5692 127.188 68.4636 127.129 68.3698 127.035C68.2759 126.953 68.2173 126.836 68.1821 126.718C68.1352 126.554 67.9827 125.956 67.8302 125.393L66.6339 120.924L66.282 119.599L66.4579 119.54L66.6339 119.493C66.6808 119.658 66.8333 120.256 66.9857 120.819L68.1821 125.299C68.3346 125.862 68.4988 126.46 68.534 126.625C68.5574 126.683 68.5926 126.73 68.6278 126.777C68.6747 126.824 68.7216 126.859 68.7803 126.871L70.1056 127.223L74.5744 128.419L75.8997 128.771C76.017 128.794 76.1461 128.759 76.2399 128.677L77.2134 127.704L80.4858 124.431L81.4593 123.458C81.5414 123.364 81.5648 123.235 81.5531 123.118C81.5062 122.953 81.3537 122.355 81.2012 121.792L79.9931 117.347C79.8407 116.784 79.6765 116.186 79.6413 116.022C79.6178 115.963 79.5826 115.916 79.5474 115.869C79.5005 115.822 79.4536 115.787 79.395 115.775L78.0696 115.412L73.6126 114.215L72.2755 113.863C72.1582 113.84 72.0292 113.875 71.9354 113.957L70.9619 114.931L67.6895 118.203L66.716 119.177C66.6339 119.271 66.5987 119.4 66.6221 119.517L66.4462 119.552L66.2703 119.599C66.2116 119.353 66.282 119.095 66.4579 118.919L67.4314 117.945L70.7038 114.684L71.6773 113.711C71.865 113.535 72.123 113.476 72.3576 113.523L73.683 113.875L78.1517 115.072L79.4771 115.423C79.5944 115.459 79.6999 115.529 79.7938 115.611C79.8876 115.705 79.9462 115.81 79.9814 115.928Z" fill="#EAFFFF"></path><path d="M74.3686 114.745L75.3421 115.308L78.6497 117.22L79.6349 117.783C79.8108 117.889 79.9164 118.076 79.9281 118.287V119.413V124.363C79.9164 124.574 79.8108 124.762 79.6349 124.867L78.6614 125.43L75.3421 127.342L74.3686 127.905C74.2748 127.952 74.181 127.975 74.0754 127.975C73.9698 127.975 73.876 127.952 73.7822 127.905L72.8087 127.342L69.4894 125.43L68.5159 124.867L68.5862 124.738L68.6566 124.609L69.6301 125.172L72.9377 127.084L73.9229 127.647C73.9698 127.671 74.0167 127.682 74.0637 127.682C74.1106 127.682 74.1692 127.671 74.2161 127.647L75.1896 127.084L78.4972 125.172L79.4707 124.609C79.5528 124.551 79.6115 124.457 79.6349 124.351V123.225V118.276C79.6232 118.17 79.5645 118.076 79.4824 118.029L78.5089 117.466L75.2014 115.555L74.2279 114.992C74.181 114.968 74.134 114.956 74.0754 114.956C74.0285 114.956 73.9698 114.968 73.9346 114.992L72.9494 115.555L69.6418 117.466L68.6683 118.029C68.5862 118.088 68.5276 118.182 68.5159 118.287V119.413V124.363C68.5276 124.469 68.5745 124.551 68.6683 124.621L68.598 124.75L68.5276 124.879C68.3517 124.773 68.2461 124.586 68.2344 124.375C68.2344 124.234 68.2344 123.73 68.2344 123.249V118.299C68.2461 118.088 68.3517 117.9 68.5276 117.795L69.5011 117.232L72.8204 115.32L73.7939 114.757C73.8877 114.71 73.9816 114.687 74.0871 114.687C74.181 114.675 74.2865 114.698 74.3686 114.745Z" fill="#EAFFFF"></path><path d="M70.1222 116.962L71.0957 116.704L74.3798 115.824L75.3533 115.566C75.5293 115.531 75.7169 115.578 75.8577 115.707L76.5732 116.422L78.9776 118.827L79.6931 119.542C79.8221 119.671 79.869 119.871 79.8221 120.046C79.7869 120.164 79.6696 120.609 79.564 121.02L78.6844 124.304C78.5671 124.715 78.4498 125.172 78.4263 125.278C78.4029 125.36 78.356 125.442 78.2856 125.512C78.2269 125.583 78.1448 125.629 78.051 125.653L77.0775 125.911L73.7934 126.791L72.8199 127.049L72.7847 126.931L72.7495 126.802L73.723 126.544L77.0071 125.665L77.9806 125.407C78.0275 125.395 78.0627 125.371 78.0979 125.336C78.1331 125.301 78.1566 125.266 78.1683 125.219L78.4263 124.245L79.306 120.961C79.4233 120.551 79.5406 120.105 79.564 119.988C79.5758 119.894 79.5523 119.812 79.4937 119.742L78.7899 119.026L76.3855 116.622L75.67 115.906C75.5997 115.847 75.5058 115.824 75.4237 115.836L74.4502 116.094L71.1661 116.985L70.1926 117.243C70.1457 117.255 70.1105 117.278 70.0753 117.314C70.0401 117.349 70.0167 117.384 70.0049 117.431C69.9698 117.548 69.8525 117.994 69.7469 118.404L68.8672 121.677C68.7617 122.087 68.6444 122.533 68.6092 122.65C68.5975 122.744 68.6209 122.826 68.6796 122.897L69.395 123.612L71.7995 126.016L72.5149 126.732C72.5853 126.791 72.6791 126.814 72.7612 126.802L72.7964 126.931L72.8316 127.06C72.6557 127.096 72.468 127.049 72.3273 126.92L71.6118 126.204L69.1956 123.765L68.4802 123.049C68.3512 122.92 68.3042 122.732 68.3394 122.545C68.3746 122.427 68.4919 121.982 68.5975 121.571L69.4771 118.287L69.7352 117.314C69.7586 117.232 69.8056 117.149 69.8759 117.079C69.958 117.032 70.0401 116.985 70.1222 116.962Z" fill="#EAFFFF"></path><path d="M69.2703 126.154C66.6078 123.492 66.6078 119.175 69.2703 116.501C71.9328 113.827 76.249 113.839 78.9232 116.501C81.5974 119.164 81.5857 123.48 78.9232 126.154C76.2607 128.817 71.9445 128.817 69.2703 126.154ZM78.7004 125.931C81.2338 123.386 81.2221 119.269 78.6769 116.748C76.1317 114.214 72.0149 114.226 69.4931 116.771C66.9714 119.304 66.9714 123.41 69.5049 125.943C72.0383 128.488 76.1552 128.477 78.7004 125.931C78.7004 125.943 78.7004 125.943 78.7004 125.931Z" fill="#EAFFFF"></path><path d="M74.3125 116.387L75.0397 116.809L77.4911 118.217L78.2183 118.639C78.3473 118.721 78.4294 118.862 78.4294 119.014V119.847V123.518C78.4177 123.67 78.3473 123.811 78.2183 123.893L77.4911 124.304L75.0397 125.723L74.3125 126.145C74.2422 126.18 74.1718 126.204 74.1014 126.204C74.031 126.204 73.9489 126.18 73.8903 126.145L73.1631 125.723L70.7118 124.304L69.9846 123.882L70.0432 123.788L70.1018 123.694L70.8173 124.116L73.2687 125.535L73.9959 125.958C74.031 125.981 74.0662 125.981 74.1014 125.981C74.1366 125.981 74.1718 125.981 74.207 125.958L74.9342 125.535L77.3855 124.116L78.1127 123.694C78.1714 123.647 78.2183 123.588 78.2183 123.506V122.674V119.002C78.2066 118.932 78.1714 118.862 78.1127 118.815L77.3855 118.392L74.9459 116.985L74.2187 116.563C74.1835 116.551 74.1483 116.539 74.1131 116.539C74.078 116.539 74.0428 116.551 74.0076 116.563L73.2804 116.985L70.829 118.392L70.1018 118.815C70.0432 118.862 69.9963 118.932 69.9963 119.002V119.835V123.506C70.008 123.577 70.0432 123.647 70.1018 123.694L70.0432 123.788L69.9846 123.882C69.8555 123.799 69.7734 123.659 69.7734 123.506V122.662V118.991C69.7734 118.838 69.8555 118.697 69.9846 118.615L70.7118 118.193L73.1631 116.786L73.8903 116.363C73.9607 116.328 74.031 116.305 74.1014 116.305C74.1718 116.34 74.2422 116.352 74.3125 116.387Z" fill="#EAFFFF"></path><path d="M70.5169 124.836C68.5464 122.865 68.5464 119.663 70.5169 117.693C72.4874 115.722 75.6894 115.722 77.6598 117.693C79.6303 119.663 79.6303 122.865 77.6598 124.836C75.6894 126.818 72.4874 126.818 70.5169 124.836ZM77.4956 124.683C79.3723 122.807 79.3605 119.757 77.4839 117.88C75.6073 116.004 72.5577 116.015 70.6811 117.892C68.8162 119.769 68.8162 122.807 70.6811 124.683C72.5577 126.56 75.6073 126.572 77.4956 124.683C77.4839 124.683 77.4956 124.683 77.4956 124.683Z" fill="#EAFFFF"></path></g><circle cx="151.95" cy="121.325" r="2.38727" fill="#0A1628" stroke="#4E5B66"></circle><circle cx="353.272" cy="86.5168" r="2.38727" transform="rotate(-5.7541 353.272 86.5168)" fill="#0A1628" stroke="#4E5B66"></circle><circle cx="72.795" cy="320.759" r="2.38727" transform="rotate(-5.7541 72.795 320.759)" fill="#0A1628" stroke="#4E5B66"></circle><g opacity="0.5" clip-path="url(#clip11_2072_99471)"><path fill-rule="evenodd" clip-rule="evenodd" d="M67.4224 355.165C65.4957 355.165 63.9282 353.557 63.9282 351.579C63.9282 349.602 65.4957 347.993 67.4224 347.993C69.3491 347.993 70.9166 349.602 70.9166 351.579C70.9166 353.557 69.3491 355.165 67.4224 355.165ZM67.4224 346.543C64.7168 346.543 62.5156 348.802 62.5156 351.579C62.5156 353.26 63.2039 354.758 64.506 355.911C65.7254 356.99 67.4741 357.734 69.493 358.079C69.7817 357.916 70.3277 357.367 70.5016 356.991C69.014 356.727 68.3318 356.466 68.3318 356.466C68.3318 356.466 68.5223 356.458 68.9046 356.348C70.8919 355.776 72.3486 353.761 72.3292 351.579C72.3042 348.802 70.128 346.543 67.4224 346.543Z" fill="#EAFFFF"></path><mask id="mask0_2072_99471" style="mask-type:alpha" maskUnits="userSpaceOnUse" x="103" y="354" width="2" height="3"><path d="M104.99 356.019V354.473H103.5V356.019H104.99Z" fill="white"></path></mask><g mask="url(#mask0_2072_99471)"><path fill-rule="evenodd" clip-rule="evenodd" d="M104.134 354.927V355.175H104.28C104.323 355.175 104.356 355.164 104.38 355.141C104.405 355.118 104.417 355.088 104.417 355.051C104.417 354.968 104.372 354.927 104.28 354.927H104.134ZM104.564 355.045C104.564 355.108 104.547 355.162 104.514 355.206C104.481 355.251 104.436 355.282 104.379 355.3L104.592 355.643H104.427L104.232 355.309H104.134V355.643H103.994V354.793H104.299C104.378 354.793 104.442 354.816 104.49 354.862C104.539 354.907 104.564 354.968 104.564 355.045ZM103.818 355.695C103.929 355.811 104.071 355.868 104.245 355.868C104.419 355.868 104.561 355.811 104.672 355.695C104.782 355.58 104.838 355.429 104.838 355.244C104.838 355.059 104.782 354.909 104.672 354.795C104.561 354.68 104.419 354.623 104.245 354.623C104.071 354.623 103.929 354.68 103.818 354.795C103.708 354.909 103.653 355.059 103.653 355.244C103.653 355.429 103.708 355.58 103.818 355.695ZM103.71 354.688C103.85 354.545 104.029 354.473 104.245 354.473C104.462 354.473 104.64 354.545 104.78 354.688C104.92 354.832 104.99 355.018 104.99 355.244C104.99 355.473 104.92 355.659 104.78 355.803C104.64 355.947 104.462 356.019 104.245 356.019C104.029 356.019 103.85 355.947 103.71 355.803C103.57 355.659 103.5 355.473 103.5 355.244C103.5 355.018 103.57 354.832 103.71 354.688Z" fill="#EAFFFF"></path></g><path fill-rule="evenodd" clip-rule="evenodd" d="M94.5636 353.896L92.9064 349.383H91.4297L93.8478 355.683C93.8478 355.683 92.7781 358.293 92.7785 358.293C93.4822 358.293 94.252 358.242 94.5534 357.48C95.2598 355.695 97.7201 349.383 97.7201 349.383H96.2431L94.5636 353.896Z" fill="#EAFFFF"></path><path fill-rule="evenodd" clip-rule="evenodd" d="M89.0234 356.148C89.0234 356.148 90.394 356.122 90.394 355.168V346.594H89.0234V356.148Z" fill="#EAFFFF"></path><path fill-rule="evenodd" clip-rule="evenodd" d="M84.1221 354.828C83.2935 354.828 82.0538 354.261 82.0347 352.697V352.686C82.0347 351.451 82.9223 350.52 84.0993 350.52C84.9785 350.52 85.6928 350.991 86.0122 351.785C86.1378 352.053 86.1981 352.368 86.1868 352.694C86.1753 353.026 86.103 353.343 85.9765 353.613C85.6538 354.374 84.9605 354.828 84.1221 354.828ZM86.1753 350.272C85.7936 349.726 85.0481 349.195 83.9503 349.195C82.0769 349.195 80.6641 350.691 80.6641 352.674C80.6641 353.601 80.9728 354.462 81.5336 355.099C82.1401 355.789 82.9758 356.153 83.9503 356.153C84.8945 356.153 85.703 355.758 86.1753 355.08V356.148C86.1753 356.148 87.5459 356.126 87.5459 355.168V349.383H86.1753V350.272Z" fill="#EAFFFF"></path><path fill-rule="evenodd" clip-rule="evenodd" d="M78.1695 353.05C78.1695 354.186 77.5946 354.817 76.5518 354.828C75.4942 354.828 74.9799 354.212 74.9799 352.944V349.383H73.6094V353.226C73.6094 353.781 73.7004 354.572 74.1346 355.191C74.5783 355.823 75.2796 356.147 76.2186 356.152C76.2314 356.152 76.2443 356.152 76.2571 356.152C77.3801 356.152 77.9585 355.63 78.2382 355.224V356.148C78.2382 356.148 79.5401 356.125 79.5401 355.215V349.383H78.1695V353.05Z" fill="#EAFFFF"></path><path fill-rule="evenodd" clip-rule="evenodd" d="M101.001 352.053C100.289 351.737 99.7712 351.464 99.7803 351.04C99.7864 350.759 100.146 350.491 100.521 350.504C100.921 350.518 101.218 350.802 101.384 351.029C101.384 351.029 102.133 350.372 102.223 350.301C101.835 349.642 101.177 349.271 100.437 349.254C99.3834 349.231 98.5073 350.079 98.4844 351.146C98.4646 352.07 98.992 352.451 99.6835 352.854L100.822 353.511C101.084 353.699 101.208 353.84 101.202 354.13C101.192 354.585 100.822 354.879 100.343 354.908C99.9897 354.93 99.7 354.72 99.4255 354.425C98.8913 353.852 98.0712 354.127 97.8203 354.21C98.3421 355.442 99.3291 356.159 100.315 356.181C101.557 356.209 102.55 355.269 102.577 354.04C102.589 353.448 102.337 352.713 101.001 352.053Z" fill="#EAFFFF"></path><path fill-rule="evenodd" clip-rule="evenodd" d="M56.9405 344.192C56.9405 344.192 54.1356 341.129 48.5573 341.129C42.9788 341.129 40.1765 344.192 40.1765 344.192C40.1765 344.192 39.8558 346.46 40.0605 351.026C40.3698 357.923 48.5578 362.066 48.5585 362.065L48.5588 362.065C48.6136 362.037 56.7484 357.9 57.0565 351.026C57.2612 346.46 56.9405 344.192 56.9405 344.192ZM48.5584 345.773C46.2495 345.773 44.3711 347.757 44.3711 350.195C44.3711 352.23 45.4212 353.826 47.4919 354.941C48.8469 355.671 50.8682 356.205 53.0039 356.487C52.6486 357.03 51.701 357.958 51.147 358.272C48.5898 357.842 46.3438 356.933 44.8084 355.571C43.1661 354.114 42.298 352.214 42.298 350.074C42.298 346.531 45.1064 343.648 48.5584 343.648C52.0104 343.648 54.8187 346.531 54.8187 350.074C54.8187 352.03 53.9265 353.827 52.4635 354.989C51.4616 354.895 50.4152 354.603 49.9411 354.325C51.1633 353.525 52.749 351.967 52.749 350.074C52.749 347.702 50.8691 345.773 48.5584 345.773Z" fill="#EAFFFF"></path></g><g opacity="0.5" clip-path="url(#clip12_2072_99471)"><path d="M377.852 84.3523C377.852 82.7164 376.614 81.5156 374.452 81.5156H370.049L367.891 91.5156H370.346L371.09 88.0795H372.525L373.949 91.5156H376.401L374.877 87.9182C376.701 87.6319 377.853 86.1362 377.853 84.3542L377.852 84.3523ZM373.92 85.9883H371.537L372.051 83.6069H374.255C374.981 83.6069 375.406 84.0068 375.406 84.589C375.406 85.3526 374.858 85.9883 373.918 85.9883" fill="#EAFFFF"></path><path d="M383.272 81.5175L377.57 91.5166H380.02L380.973 89.8587H385.513L385.87 91.5147H388.319L386.171 81.5156L383.272 81.5175ZM382.164 87.7712L384.266 84.086L385.062 87.7712H382.164Z" fill="#EAFFFF"></path><path d="M395.789 81.5156H391.643L389.484 91.5156H391.932L392.682 88.0795H395.417C397.756 88.0795 399.174 86.2794 399.174 84.3886C399.174 82.6982 397.88 81.5156 395.789 81.5156ZM395.311 85.9883H393.134L393.645 83.6069H395.542C396.286 83.6069 396.746 83.9705 396.746 84.589C396.746 85.3526 396.179 85.9883 395.311 85.9883Z" fill="#EAFFFF"></path><path d="M403.779 81.5156H401.324L399.164 91.5156H401.619L403.779 81.5156Z" fill="#EAFFFF"></path><path d="M421.477 81.5156H413.74C413.857 81.6378 413.971 81.7638 414.079 81.8974C414.947 82.9664 415.405 84.3132 415.405 85.7907C415.411 86.8692 415.195 87.9369 414.772 88.9238C414.348 89.9108 413.725 90.7946 412.945 91.5175H417.689L419.934 85.8184H417.112L417.585 83.6078H423.18L420.243 91.5156H421.39C424.077 91.5328 425.892 89.264 425.892 86.5075C425.892 83.751 424.162 81.5156 421.476 81.5156" fill="#EAFFFF"></path><path d="M412.727 83.1449C411.879 82.1007 410.494 81.5156 408.851 81.5156H405.706L403.547 91.5147H407.504C409.039 91.5147 410.225 91.1672 411.126 90.6117C412.96 89.4797 413.611 87.482 413.611 85.7878C413.611 84.7293 413.287 83.8369 412.727 83.1449ZM407.809 89.4263H406.452L407.709 83.604H408.987C410.392 83.604 411.18 84.6768 411.18 86.0169C411.18 87.8209 409.917 89.4244 407.807 89.4244" fill="#EAFFFF"></path></g><g opacity="0.1" filter="url(#filter1_f_2072_99471)"><circle cx="88.8875" cy="187.177" r="7.44217" fill="#0A1628" fill-opacity="0.5"></circle><circle cx="88.8875" cy="187.177" r="7.44217" fill="url(#paint28_radial_2072_99471)" fill-opacity="0.5"></circle><circle cx="88.8875" cy="187.177" r="7.1941" stroke="#EAFFFF" stroke-opacity="0.5" stroke-width="0.496145"></circle></g><g opacity="0.1" filter="url(#filter2_f_2072_99471)"><circle cx="444.575" cy="54.489" r="7.44217" fill="#0A1628" fill-opacity="0.5"></circle><circle cx="444.575" cy="54.489" r="7.44217" fill="url(#paint29_radial_2072_99471)" fill-opacity="0.5"></circle><circle cx="444.575" cy="54.489" r="7.1941" stroke="#EAFFFF" stroke-opacity="0.5" stroke-width="0.496145"></circle></g><g opacity="0.1" filter="url(#filter3_f_2072_99471)"><circle cx="136.63" cy="431.645" r="7.44217" fill="#0A1628" fill-opacity="0.5"></circle><circle cx="136.63" cy="431.645" r="7.44217" fill="url(#paint30_radial_2072_99471)" fill-opacity="0.5"></circle><circle cx="136.63" cy="431.645" r="7.1941" stroke="#EAFFFF" stroke-opacity="0.5" stroke-width="0.496145"></circle></g></g><defs><filter id="filter0_d_2072_99471" x="165" y="85" width="524" height="500.77" filterUnits="userSpaceOnUse" color-interpolation-filters="sRGB"><feFlood flood-opacity="0" result="BackgroundImageFix"></feFlood><feColorMatrix in="SourceAlpha" type="matrix" values="0 0 0 0 0 0 0 0 0 0 0 0 0 0 0 0 0 0 127 0" result="hardAlpha"></feColorMatrix><feOffset dx="50"></feOffset><feGaussianBlur stdDeviation="25"></feGaussianBlur><feComposite in2="hardAlpha" operator="out"></feComposite><feColorMatrix type="matrix" values="0 0 0 0 0.917647 0 0 0 0 1 0 0 0 0 1 0 0 0 0.02 0"></feColorMatrix><feBlend mode="normal" in2="BackgroundImageFix" result="effect1_dropShadow_2072_99471"></feBlend><feBlend mode="normal" in="SourceGraphic" in2="effect1_dropShadow_2072_99471" result="shape"></feBlend></filter><filter id="filter1_f_2072_99471" x="77.4453" y="175.734" width="22.8828" height="22.8828" filterUnits="userSpaceOnUse" color-interpolation-filters="sRGB"><feFlood flood-opacity="0" result="BackgroundImageFix"></feFlood><feBlend mode="normal" in="SourceGraphic" in2="BackgroundImageFix" result="shape"></feBlend><feGaussianBlur stdDeviation="2" result="effect1_foregroundBlur_2072_99471"></feGaussianBlur></filter><filter id="filter2_f_2072_99471" x="433.133" y="43.0469" width="22.8828" height="22.8828" filterUnits="userSpaceOnUse" color-interpolation-filters="sRGB"><feFlood flood-opacity="0" result="BackgroundImageFix"></feFlood><feBlend mode="normal" in="SourceGraphic" in2="BackgroundImageFix" result="shape"></feBlend><feGaussianBlur stdDeviation="2" result="effect1_foregroundBlur_2072_99471"></feGaussianBlur></filter><filter id="filter3_f_2072_99471" x="125.188" y="420.203" width="22.8828" height="22.8828" filterUnits="userSpaceOnUse" color-interpolation-filters="sRGB"><feFlood flood-opacity="0" result="BackgroundImageFix"></feFlood><feBlend mode="normal" in="SourceGraphic" in2="BackgroundImageFix" result="shape"></feBlend><feGaussianBlur stdDeviation="2" result="effect1_foregroundBlur_2072_99471"></feGaussianBlur></filter><linearGradient id="paint0_linear_2072_99471" x1="196.506" y1="179.625" x2="269.573" y2="179.625" gradientUnits="userSpaceOnUse"><stop stop-color="#EAFFFF"></stop><stop offset="1" stop-color="#EAFFFF" stop-opacity="0"></stop></linearGradient><linearGradient id="paint1_linear_2072_99471" x1="204.943" y1="192.313" x2="268.876" y2="192.313" gradientUnits="userSpaceOnUse"><stop stop-color="#EAFFFF"></stop><stop offset="1" stop-color="#EAFFFF" stop-opacity="0"></stop></linearGradient><linearGradient id="paint2_linear_2072_99471" x1="221.816" y1="205.004" x2="267.483" y2="205.004" gradientUnits="userSpaceOnUse"><stop stop-color="#EAFFFF"></stop><stop offset="1" stop-color="#EAFFFF" stop-opacity="0"></stop></linearGradient><linearGradient id="paint3_linear_2072_99471" x1="217.598" y1="217.692" x2="267.831" y2="217.692" gradientUnits="userSpaceOnUse"><stop stop-color="#EAFFFF"></stop><stop offset="1" stop-color="#EAFFFF" stop-opacity="0"></stop></linearGradient><linearGradient id="paint4_linear_2072_99471" x1="207.052" y1="230.379" x2="268.702" y2="230.379" gradientUnits="userSpaceOnUse"><stop stop-color="#EAFFFF"></stop><stop offset="1" stop-color="#EAFFFF" stop-opacity="0"></stop></linearGradient><linearGradient id="paint5_linear_2072_99471" x1="213.38" y1="243.07" x2="268.18" y2="243.07" gradientUnits="userSpaceOnUse"><stop stop-color="#EAFFFF"></stop><stop offset="1" stop-color="#EAFFFF" stop-opacity="0"></stop></linearGradient><linearGradient id="paint6_linear_2072_99471" x1="221.816" y1="255.758" x2="267.483" y2="255.758" gradientUnits="userSpaceOnUse"><stop stop-color="#EAFFFF"></stop><stop offset="1" stop-color="#EAFFFF" stop-opacity="0"></stop></linearGradient><linearGradient id="paint7_linear_2072_99471" x1="211.271" y1="268.445" x2="268.354" y2="268.445" gradientUnits="userSpaceOnUse"><stop stop-color="#EAFFFF"></stop><stop offset="1" stop-color="#EAFFFF" stop-opacity="0"></stop></linearGradient><linearGradient id="paint8_linear_2072_99471" x1="221.816" y1="281.133" x2="267.483" y2="281.133" gradientUnits="userSpaceOnUse"><stop stop-color="#EAFFFF"></stop><stop offset="1" stop-color="#EAFFFF" stop-opacity="0"></stop></linearGradient><linearGradient id="paint9_linear_2072_99471" x1="211.271" y1="293.824" x2="268.354" y2="293.824" gradientUnits="userSpaceOnUse"><stop stop-color="#EAFFFF"></stop><stop offset="1" stop-color="#EAFFFF" stop-opacity="0"></stop></linearGradient><linearGradient id="paint10_linear_2072_99471" x1="454.762" y1="179.625" x2="507.279" y2="179.625" gradientUnits="userSpaceOnUse"><stop stop-color="#EAFFFF"></stop><stop offset="1" stop-color="#EAFFFF" stop-opacity="0"></stop></linearGradient><linearGradient id="paint11_linear_2072_99471" x1="457.136" y1="192.313" x2="491.386" y2="192.313" gradientUnits="userSpaceOnUse"><stop stop-color="#EAFFFF"></stop><stop offset="1" stop-color="#EAFFFF" stop-opacity="0"></stop></linearGradient><linearGradient id="paint12_linear_2072_99471" x1="454.762" y1="205.004" x2="507.279" y2="205.004" gradientUnits="userSpaceOnUse"><stop stop-color="#EAFFFF"></stop><stop offset="1" stop-color="#EAFFFF" stop-opacity="0"></stop></linearGradient><linearGradient id="paint13_linear_2072_99471" x1="376.78" y1="354.078" x2="449.846" y2="354.078" gradientUnits="userSpaceOnUse"><stop stop-color="#EAFFFF"></stop><stop offset="1" stop-color="#EAFFFF" stop-opacity="0"></stop></linearGradient><linearGradient id="paint14_linear_2072_99471" x1="377.966" y1="366.703" x2="441.9" y2="366.703" gradientUnits="userSpaceOnUse"><stop stop-color="#EAFFFF"></stop><stop offset="1" stop-color="#EAFFFF" stop-opacity="0"></stop></linearGradient><linearGradient id="paint15_linear_2072_99471" x1="380.34" y1="379.328" x2="426.006" y2="379.328" gradientUnits="userSpaceOnUse"><stop stop-color="#EAFFFF"></stop><stop offset="1" stop-color="#EAFFFF" stop-opacity="0"></stop></linearGradient><linearGradient id="paint16_linear_2072_99471" x1="380.34" y1="391.953" x2="426.006" y2="391.953" gradientUnits="userSpaceOnUse"><stop stop-color="#EAFFFF"></stop><stop offset="1" stop-color="#EAFFFF" stop-opacity="0"></stop></linearGradient><linearGradient id="paint17_linear_2072_99471" x1="379.746" y1="404.578" x2="429.98" y2="404.578" gradientUnits="userSpaceOnUse"><stop stop-color="#EAFFFF"></stop><stop offset="1" stop-color="#EAFFFF" stop-opacity="0"></stop></linearGradient><linearGradient id="paint18_linear_2072_99471" x1="379.746" y1="417.203" x2="429.98" y2="417.203" gradientUnits="userSpaceOnUse"><stop stop-color="#EAFFFF"></stop><stop offset="1" stop-color="#EAFFFF" stop-opacity="0"></stop></linearGradient><linearGradient id="paint19_linear_2072_99471" x1="378.263" y1="429.832" x2="439.913" y2="429.832" gradientUnits="userSpaceOnUse"><stop stop-color="#EAFFFF"></stop><stop offset="1" stop-color="#EAFFFF" stop-opacity="0"></stop></linearGradient><linearGradient id="paint20_linear_2072_99471" x1="378.263" y1="442.457" x2="439.913" y2="442.457" gradientUnits="userSpaceOnUse"><stop stop-color="#EAFFFF"></stop><stop offset="1" stop-color="#EAFFFF" stop-opacity="0"></stop></linearGradient><linearGradient id="paint21_linear_2072_99471" x1="380.34" y1="455.082" x2="426.006" y2="455.082" gradientUnits="userSpaceOnUse"><stop stop-color="#EAFFFF"></stop><stop offset="1" stop-color="#EAFFFF" stop-opacity="0"></stop></linearGradient><linearGradient id="paint22_linear_2072_99471" x1="378.263" y1="467.707" x2="439.913" y2="467.707" gradientUnits="userSpaceOnUse"><stop stop-color="#EAFFFF"></stop><stop offset="1" stop-color="#EAFFFF" stop-opacity="0"></stop></linearGradient><linearGradient id="paint23_linear_2072_99471" x1="379.746" y1="480.332" x2="429.98" y2="480.332" gradientUnits="userSpaceOnUse"><stop stop-color="#EAFFFF"></stop><stop offset="1" stop-color="#EAFFFF" stop-opacity="0"></stop></linearGradient><linearGradient id="paint24_linear_2072_99471" x1="110.463" y1="79.0756" x2="552.153" y2="192.469" gradientUnits="userSpaceOnUse"><stop stop-color="#EAFFFF" stop-opacity="0.4"></stop><stop offset="1" stop-color="#EAFFFF" stop-opacity="0"></stop></linearGradient><linearGradient id="paint25_linear_2072_99471" x1="319.995" y1="290.321" x2="185.001" y2="153.43" gradientUnits="userSpaceOnUse"><stop stop-color="#EAFFFF"></stop><stop offset="1" stop-color="#EAFFFF" stop-opacity="0"></stop></linearGradient><linearGradient id="paint26_linear_2072_99471" x1="264.173" y1="243.686" x2="162.142" y2="140.221" gradientUnits="userSpaceOnUse"><stop stop-color="#EAFFFF"></stop><stop offset="1" stop-color="#EAFFFF" stop-opacity="0"></stop></linearGradient><linearGradient id="paint27_linear_2072_99471" x1="207.28" y1="192.636" x2="144.552" y2="129.027" gradientUnits="userSpaceOnUse"><stop stop-color="#EAFFFF"></stop><stop offset="1" stop-color="#EAFFFF" stop-opacity="0"></stop></linearGradient><radialGradient id="paint28_radial_2072_99471" cx="0" cy="0" r="1" gradientUnits="userSpaceOnUse" gradientTransform="translate(88.8875 187.177) rotate(90) scale(7.44217)"><stop offset="0.531583" stop-color="#EAFFFF" stop-opacity="0"></stop><stop offset="1" stop-color="#EAFFFF"></stop></radialGradient><radialGradient id="paint29_radial_2072_99471" cx="0" cy="0" r="1" gradientUnits="userSpaceOnUse" gradientTransform="translate(444.575 54.489) rotate(90) scale(7.44217)"><stop offset="0.531583" stop-color="#EAFFFF" stop-opacity="0"></stop><stop offset="1" stop-color="#EAFFFF"></stop></radialGradient><radialGradient id="paint30_radial_2072_99471" cx="0" cy="0" r="1" gradientUnits="userSpaceOnUse" gradientTransform="translate(136.63 431.645) rotate(90) scale(7.44217)"><stop offset="0.531583" stop-color="#EAFFFF" stop-opacity="0"></stop><stop offset="1" stop-color="#EAFFFF"></stop></radialGradient><clipPath id="clip0_2072_99471"><rect width="588" height="480" fill="white"></rect></clipPath><clipPath id="clip1_2072_99471"><rect width="117.824" height="7.25069" fill="white" transform="translate(271.258 176)"></rect></clipPath><clipPath id="clip2_2072_99471"><rect width="101.51" height="7.25069" fill="white" transform="translate(271.258 188.688)"></rect></clipPath><clipPath id="clip3_2072_99471"><rect width="143.201" height="7.25069" fill="white" transform="translate(271.258 201.379)"></rect></clipPath><clipPath id="clip4_2072_99471"><rect width="83.3829" height="7.25069" fill="white" transform="translate(271.258 214.066)"></rect></clipPath><clipPath id="clip5_2072_99471"><rect width="101.51" height="7.25069" fill="white" transform="translate(271.258 226.754)"></rect></clipPath><clipPath id="clip6_2072_99471"><rect width="74.3196" height="7.25069" fill="white" transform="translate(271.258 239.445)"></rect></clipPath><clipPath id="clip7_2072_99471"><rect width="183.08" height="7.25069" fill="white" transform="translate(271.258 252.133)"></rect></clipPath><clipPath id="clip8_2072_99471"><rect width="232.022" height="7.25069" fill="white" transform="translate(271.258 264.82)"></rect></clipPath><clipPath id="clip9_2072_99471"><rect width="172.204" height="7.25069" fill="white" transform="translate(271.258 277.508)"></rect></clipPath><clipPath id="clip10_2072_99471"><rect width="228.397" height="7.25069" fill="white" transform="translate(271.258 290.199)"></rect></clipPath><clipPath id="clip11_2072_99471"><rect width="65" height="21" fill="white" transform="translate(40 341.129)"></rect></clipPath><clipPath id="clip12_2072_99471"><rect width="58" height="10" fill="white" transform="translate(367.891 81.5156)"></rect></clipPath></defs></svg> 